<svg xmlns="http://www.w3.org/2000/svg" viewBox="0 0 64 64">
  <defs>
    <linearGradient id="bg" x1="0" x2="1" y1="0" y2="1">
      <stop offset="0%" stop-color="#2e1a14"/>
      <stop offset="100%" stop-color="#120c0a"/>
    </linearGradient>
    <linearGradient id="gold" x1="0" x2="1" y1="0" y2="1">
      <stop offset="0%" stop-color="#efd9a2"/>
      <stop offset="55%" stop-color="#c9994c"/>
      <stop offset="100%" stop-color="#8c5427"/>
    </linearGradient>
  </defs>
  <rect width="64" height="64" rx="16" fill="url(#bg)"/>
  <rect x="3.5" y="3.5" width="57" height="57" rx="12.5" fill="none" stroke="#6f4628" stroke-opacity=".55"/>
  <path d="M32 10c9.4 0 18 7.2 18 17.3 0 9.8-4.5 16.8-12.2 23.8l-5.8 5.3-5.8-5.3C18.5 44 14 37 14 27.3 14 17.2 22.6 10 32 10Z" fill="none" stroke="url(#gold)" stroke-width="2.8" stroke-linejoin="round"/>
  <path d="M25.2 24.5h14.1c-.3 4.3-1.4 8-4.7 11.8l-2.6 3-2.6-3c-3.1-3.5-4.3-7.3-4.2-11.8Z" fill="url(#gold)"/>
  <path d="M28.3 18.7c1.7-2 4-3.1 6.7-3.1 2.3 0 4.7.9 6.5 2.4" fill="none" stroke="url(#gold)" stroke-width="2.5" stroke-linecap="round"/>
  <circle cx="32" cy="42.5" r="2.4" fill="#d7af63"/>
</svg>
